<svg width="7" height="12" viewBox="0 0 7 12" fill="none" xmlns="http://www.w3.org/2000/svg">
<path d="M5.925 0.502L4.448 0.5C2.789 0.5 1.717 1.6 1.717 3.301V4.594H0.232C0.104 4.594 0 4.697 0 4.827V6.697C0 6.826 0.104 6.93 0.232 6.93H1.716V11.653C1.716 11.783 1.82 11.885 1.948 11.885H3.886C4.014 11.885 4.117 11.782 4.117 11.653V6.931H5.853C5.981 6.931 6.085 6.827 6.085 6.698L6.086 4.828C6.086 4.764 6.061 4.707 6.018 4.663C5.976 4.617 5.917 4.594 5.855 4.594H4.118V3.499C4.118 2.973 4.244 2.705 4.93 2.705H5.925C6.053 2.705 6.156 2.601 6.156 2.472V0.733C6.156 0.604 6.053 0.502 5.925 0.502Z" fill="#292929"/>
</svg>
