<svg width="12" height="10" viewBox="0 0 12 10" fill="none" xmlns="http://www.w3.org/2000/svg">
<path d="M8.03181 0.001C6.69881 0.022 5.64781 1.173 5.64781 2.507V2.83C3.26281 2.406 2.09081 1.759 0.797806 0.405C0.0308061 1.9 0.879806 3.153 1.80981 3.841C1.18281 3.841 0.657806 3.76 0.252806 3.396C0.212806 3.376 0.171806 3.396 0.191806 3.437C0.535806 4.689 1.70781 5.599 2.61681 5.861C1.78881 5.861 1.24281 5.982 0.656806 5.619C0.616806 5.598 0.575806 5.619 0.595806 5.66C1.04081 6.892 1.93081 7.275 3.22381 7.275C2.57681 7.761 1.70781 8.245 0.0708062 8.287C0.00980617 8.287 -0.0311938 8.367 0.0308062 8.407C0.635806 8.912 2.13181 9.297 4.23281 9.297C7.68881 9.297 10.4978 6.225 10.4978 2.426V2.225C11.0438 2.023 11.3468 1.537 11.5088 1.052C11.5088 1.032 11.4878 1.012 11.4678 1.012L10.3168 1.416C10.2958 1.416 10.2758 1.376 10.2958 1.354C10.7808 0.97 11.1448 0.486 11.3068 0.021C11.3068 0.021 11.2858 0 11.2658 0C10.7208 0.223 10.1958 0.445 9.79081 0.566C9.72981 0.586 9.64881 0.586 9.58881 0.546C9.32581 0.405 8.53781 0.001 8.03181 0.001Z" fill="#0F709E"/>
</svg>
