<svg width="15" height="9" viewBox="0 0 15 9" fill="none" xmlns="http://www.w3.org/2000/svg">
<path d="M12.5727 5.757C13.0567 6.231 13.5687 6.675 14.0037 7.196C14.1947 7.426 14.3767 7.667 14.5167 7.934C14.7137 8.316 14.5357 8.736 14.1927 8.759L12.0647 8.757C11.5157 8.804 11.0777 8.582 10.7107 8.207C10.4157 7.907 10.1427 7.587 9.85872 7.277C9.74172 7.152 9.62072 7.032 9.47572 6.938C9.18572 6.749 8.93272 6.807 8.76672 7.11C8.59772 7.418 8.55972 7.759 8.54272 8.103C8.52072 8.604 8.36772 8.735 7.86472 8.758C6.78872 8.81 5.76872 8.646 4.81972 8.104C3.98272 7.626 3.33472 6.95 2.77072 6.186C1.67172 4.697 0.830725 3.061 0.0737245 1.379C-0.0962755 1 0.0277245 0.796 0.445724 0.789C1.14072 0.775 1.83472 0.776 2.52972 0.788C2.81172 0.792 2.99872 0.954 3.10772 1.221C3.48272 2.145 3.94272 3.024 4.51972 3.837C4.67272 4.054 4.82972 4.271 5.05272 4.424C5.29972 4.593 5.48772 4.537 5.60372 4.262C5.67772 4.088 5.70972 3.899 5.72672 3.713C5.78172 3.07 5.78872 2.429 5.69172 1.79C5.63372 1.39 5.40772 1.131 5.00972 1.056C4.80672 1.018 4.83672 0.94 4.93572 0.825C5.10572 0.625 5.26672 0.5 5.58772 0.5H7.99272C8.37172 0.575 8.45572 0.745 8.50772 1.127L8.50972 3.798C8.50572 3.945 8.58272 4.383 8.84872 4.48C9.06172 4.55 9.20173 4.38 9.32872 4.245C9.90473 3.634 10.3157 2.913 10.6827 2.164C10.8457 1.836 10.9857 1.493 11.1207 1.152C11.2217 0.899 11.3797 0.774 11.6647 0.779L13.9787 0.782C14.0477 0.782 14.1177 0.783 14.1837 0.795C14.5737 0.86 14.6807 1.029 14.5597 1.409C14.3707 2.008 14.0007 2.505 13.6397 3.005C13.2537 3.54 12.8407 4.056 12.4577 4.593C12.1077 5.083 12.1357 5.331 12.5727 5.757Z" fill="#292929"/>
</svg>
