<svg width="16" height="13" viewBox="0 0 16 13" fill="none" xmlns="http://www.w3.org/2000/svg">
<path d="M15.6462 2.45333L15.6662 2.58399C15.4729 1.89799 14.9509 1.36866 14.2875 1.17599L14.2735 1.17266C13.0262 0.833994 8.00686 0.833994 8.00686 0.833994C8.00686 0.833994 3.0002 0.827327 1.7402 1.17266C1.0642 1.36866 0.541529 1.89799 0.351529 2.56999L0.348196 2.58399C-0.117804 5.01799 -0.121137 7.94266 0.368863 10.5487L0.348196 10.4167C0.541529 11.1027 1.06353 11.632 1.72686 11.8247L1.74086 11.828C2.98686 12.1673 8.00753 12.1673 8.00753 12.1673C8.00753 12.1673 13.0135 12.1673 14.2742 11.828C14.9509 11.632 15.4735 11.1027 15.6635 10.4307L15.6669 10.4167C15.8789 9.28466 16.0002 7.98199 16.0002 6.65133C16.0002 6.60266 16.0002 6.55333 15.9995 6.50399C16.0002 6.45866 16.0002 6.40466 16.0002 6.35066C16.0002 5.01933 15.8789 3.71666 15.6462 2.45333ZM6.40553 8.93466V4.07266L10.5829 6.50733L6.40553 8.93466Z" fill="black"/>
</svg>
