<?xml version="1.0" standalone="no"?>
<!DOCTYPE svg PUBLIC "-//W3C//DTD SVG 20010904//EN"
 "http://www.w3.org/TR/2001/REC-SVG-20010904/DTD/svg10.dtd">
<svg version="1.0" xmlns="http://www.w3.org/2000/svg"
 width="700.000000pt" height="700.000000pt" viewBox="0 0 700.000000 700.000000"
 preserveAspectRatio="xMidYMid meet">
<metadata>
Created by potrace 1.11, written by Peter Selinger 2001-2013
</metadata>
<g transform="translate(0.000000,700.000000) scale(0.100000,-0.100000)"
fill="#000000" stroke="none">
<path d="M0 3500 l0 -3500 3500 0 3500 0 0 3500 0 3500 -3500 0 -3500 0 0
-3500z m4552 2243 c-99 -109 -108 -121 -95 -134 7 -7 50 32 144 131 l134 142
9 -48 c9 -47 9 -48 -35 -88 -162 -148 -201 -188 -193 -196 5 -5 74 46 169 125
88 74 163 135 166 135 4 0 9 -12 12 -27 3 -16 8 -35 12 -44 4 -12 -34 -47
-154 -139 -89 -68 -161 -127 -161 -131 0 -27 40 -7 198 102 97 67 182 123 189
126 7 3 17 -12 24 -37 11 -35 11 -43 -2 -50 -151 -88 -355 -220 -356 -231 -2
-8 1 -20 6 -28 7 -10 51 11 202 96 l194 110 22 -35 c12 -20 20 -39 18 -42 -2
-4 -97 -49 -209 -101 -188 -86 -206 -96 -206 -119 0 -54 7 -53 196 20 98 38
186 70 194 70 8 -1 25 -9 38 -20 47 -39 31 -49 -198 -113 -118 -33 -217 -61
-219 -63 -2 -2 -6 -23 -8 -49 -4 -34 -2 -45 8 -45 8 0 89 10 181 22 140 18
173 20 207 9 30 -8 41 -17 41 -31 0 -11 -3 -20 -7 -21 -5 0 -109 -12 -233 -27
l-225 -27 -9 -49 c-6 -34 -5 -50 3 -55 6 -4 80 -17 164 -30 200 -29 227 -37
227 -61 0 -24 17 -23 -239 -5 -113 8 -206 13 -207 12 -7 -9 -44 -88 -44 -95 0
-5 81 -48 180 -97 181 -90 201 -105 166 -134 -12 -10 -56 1 -215 52 l-200 64
-16 -23 c-8 -13 -15 -27 -15 -31 0 -4 24 -24 53 -44 249 -174 572 -484 780
-751 548 -705 729 -1487 465 -2013 -157 -310 -419 -504 -798 -589 -491 -109
-1102 1 -1695 304 -367 188 -692 426 -990 725 -459 459 -753 961 -862 1472
-25 116 -27 148 -28 338 0 199 2 216 28 320 31 118 92 259 154 352 90 138 256
280 421 362 313 157 768 188 1226 85 60 -13 110 -24 112 -24 1 0 -1 14 -6 31
l-9 32 65 -7 66 -7 -7 66 c-4 36 -5 65 -1 65 3 0 24 -7 46 -16 56 -23 70 -9
70 68 l0 60 34 -21 33 -21 27 21 c22 17 26 28 26 71 0 50 0 51 20 33 11 -10
20 -24 20 -32 0 -20 12 -15 52 22 32 30 37 41 40 87 l3 53 15 -47 15 -48 42
28 c40 26 42 29 49 89 7 71 24 76 24 7 0 -49 1 -50 50 -26 31 15 36 24 50 84
8 37 18 70 22 74 11 10 21 -41 16 -82 -4 -35 -4 -36 26 -30 16 4 30 7 31 9 1
1 17 45 36 97 33 92 34 94 43 62 6 -23 4 -47 -7 -87 l-16 -55 25 0 c21 0 31
15 76 104 29 58 55 103 59 101 3 -3 9 -19 13 -36 5 -25 -1 -45 -29 -95 -33
-59 -34 -64 -16 -64 14 0 39 31 91 115 40 63 76 113 80 110 4 -3 11 -21 14
-40 6 -32 2 -42 -48 -107 -61 -77 -65 -88 -38 -88 10 0 57 51 117 126 l100
126 12 -43 13 -42 -68 -74z"/>
<path d="M4090 5494 c-165 -56 -327 -168 -502 -345 -65 -66 -118 -123 -118
-128 0 -5 33 -22 73 -36 199 -75 419 -179 580 -274 47 -28 89 -51 94 -51 4 0
33 39 64 88 227 352 259 658 79 750 -63 32 -169 30 -270 -4z"/>
<path d="M2545 5080 c-552 -63 -906 -347 -1027 -827 -20 -77 -23 -113 -22
-293 0 -175 3 -220 23 -310 120 -555 493 -1126 1016 -1554 684 -562 1494 -821
2140 -686 254 52 449 160 615 337 256 273 334 691 215 1158 -97 381 -309 755
-634 1119 -92 104 -261 267 -261 252 0 -3 14 -21 30 -40 39 -44 32 -66 -22
-66 -33 0 -67 17 -195 96 -154 95 -156 96 -175 76 -19 -19 -19 -21 76 -210 53
-106 96 -199 96 -207 0 -26 -30 -29 -104 -10 l-72 17 -79 102 c-44 55 -81 94
-82 86 -1 -8 12 -107 31 -220 37 -234 39 -226 -53 -217 -103 11 -114 19 -141
98 -14 39 -28 73 -31 75 -6 3 -19 -180 -19 -273 0 -29 -2 -53 -5 -53 -32 0
-203 47 -211 58 -8 11 -15 -5 -29 -67 -16 -73 -20 -80 -39 -76 -12 3 -57 14
-101 24 l-80 19 -15 -32 c-8 -17 -15 -32 -16 -34 -1 -1 -38 12 -83 30 -64 24
-84 29 -90 19 -6 -10 -29 -3 -95 29 -47 23 -84 46 -81 50 3 5 -24 26 -60 47
-40 23 -63 42 -60 50 3 7 8 19 11 27 3 9 -12 26 -40 47 -51 36 -52 38 -31 78
14 27 13 30 -21 70 l-36 42 26 34 c14 18 26 36 26 40 0 3 -14 24 -32 46 l-32
39 39 40 38 39 -26 39 -25 39 41 41 41 41 -19 42 -19 41 26 19 c72 53 71 50
53 92 -9 21 -13 42 -10 47 3 4 25 21 49 36 l43 27 -12 47 -12 47 54 27 c37 18
53 31 50 41 -3 7 -9 29 -12 47 l-7 34 61 19 c47 14 60 22 57 34 -3 9 -8 32
-11 52 l-7 35 49 10 48 10 -75 17 c-194 44 -482 65 -645 47z m475 -1825 l0
-85 -40 0 -40 0 0 45 0 45 -45 0 -45 0 0 -220 0 -220 45 0 c45 0 45 0 45 35 0
33 2 35 35 35 l35 0 0 -80 0 -80 -115 0 -115 0 0 305 0 305 120 0 120 0 0 -85z
m150 -77 l1 -163 49 55 50 55 0 108 0 107 35 0 35 0 0 -305 0 -305 -35 0 -35
0 0 153 -1 152 -49 -55 -50 -55 0 -97 0 -98 -35 0 -35 0 0 305 0 305 35 0 35
0 0 -162z m490 -143 l0 -305 -35 0 -35 0 -2 263 -3 262 -37 3 c-37 3 -38 4
-38 43 l0 39 75 0 75 0 0 -305z m330 0 l0 -305 -120 0 -120 0 0 305 0 305 120
0 120 0 0 -305z m320 180 l0 -125 -80 0 -80 0 0 -55 0 -55 80 0 80 0 0 -125 0
-125 -115 0 -115 0 0 305 0 305 115 0 115 0 0 -125z m170 -55 l0 -180 80 0 80
0 0 -125 0 -125 -120 0 -120 0 0 305 0 305 40 0 40 0 0 -180z m160 55 l0 -125
-35 0 -35 0 0 125 0 125 35 0 35 0 0 -125z m330 40 l0 -85 -40 0 -40 0 0 45 0
45 -45 0 -45 0 0 -95 0 -95 45 0 c45 0 45 0 45 -35 0 -35 0 -35 -45 -35 l-45
0 0 -90 0 -90 45 0 c45 0 45 0 45 35 0 33 2 35 35 35 l35 0 0 -80 0 -80 -115
0 -115 0 0 305 0 305 120 0 120 0 0 -85z m-1470 -265 l0 -260 -35 0 -35 0 0
260 0 260 35 0 35 0 0 -260z m-570 -475 c0 -45 0 -45 -35 -45 -35 0 -35 0 -35
45 0 45 0 45 35 45 35 0 35 0 35 -45z m240 -270 l0 -305 -35 0 -35 0 0 260 0
260 -40 0 -40 0 0 45 0 45 75 0 75 0 0 -305z m320 0 l0 -305 -35 0 -34 0 -3
133 -3 132 -40 0 -40 0 -3 -132 -3 -133 -34 0 -35 0 0 260 0 260 35 0 34 0 3
-87 3 -88 43 -3 42 -3 0 90 0 91 -40 0 -40 0 0 45 0 45 75 0 75 0 0 -305z
m170 40 l0 -265 45 0 45 0 0 265 0 265 35 0 35 0 0 -265 0 -265 45 0 45 0 0
265 0 265 35 0 35 0 0 -305 0 -305 -195 0 -195 0 0 305 0 305 35 0 35 0 0
-265z m490 108 l0 -158 45 47 45 47 0 110 0 111 35 0 35 0 0 -305 0 -305 -35
0 -35 0 0 152 0 152 -45 -49 -44 -50 -1 -102 0 -103 -35 0 -35 0 0 305 0 305
35 0 35 0 0 -157z m330 22 l0 -135 45 0 45 0 0 135 0 135 35 0 35 0 0 -305 0
-305 -35 0 -35 0 0 130 0 130 -45 0 -45 0 0 -130 0 -130 -40 0 -40 0 0 305 0
305 40 0 40 0 0 -135z m320 -45 l0 -180 80 0 80 0 0 -125 0 -125 -115 0 -115
0 0 305 0 305 35 0 35 0 0 -180z m170 45 l0 -125 -40 0 -40 0 0 125 0 125 40
0 40 0 0 -125z m-2120 -210 l0 -265 -35 0 -35 0 0 265 0 265 35 0 35 0 0 -265z
m160 -5 l0 -260 -35 0 -35 0 0 260 0 260 35 0 35 0 0 -260z"/>
<path d="M3830 3040 l0 -230 40 0 40 0 0 230 0 230 -40 0 -40 0 0 -230z"/>
<path d="M4157 3264 c-4 -4 -7 -27 -7 -51 l0 -43 46 0 45 0 -3 48 c-3 46 -4
47 -38 50 -20 2 -39 0 -43 -4z"/>
<path d="M4150 2855 l0 -45 45 0 45 0 0 45 0 45 -45 0 -45 0 0 -45z"/>
<path d="M4480 2860 l0 -50 40 0 40 0 0 50 0 50 -40 0 -40 0 0 -50z"/>
<path d="M4802 2063 l3 -48 43 -3 42 -3 0 50 0 51 -46 0 -45 0 3 -47z"/>
<path d="M3406 4937 c-91 -122 -176 -284 -218 -418 -33 -107 -33 -254 1 -322
45 -93 152 -132 280 -104 153 35 304 119 476 266 92 78 238 238 230 251 -8 13
-181 114 -295 172 -119 61 -223 106 -357 154 l-92 33 -25 -32z"/>
</g>
</svg>
