<svg xmlns="http://www.w3.org/2000/svg"><symbol id="icon_arrow" viewBox="0 0 6 10"><path d="M0 8.571L3.646 5 0 1.429.73 0l5.103 5L.73 10 0 8.571z"/></symbol><symbol id="icon_calendar" viewBox="0 0 14 14"><path d="M12 4v8H2V4h10zm2-2H0v12h14V2z"/><path fill-rule="evenodd" clip-rule="evenodd" d="M2 0h2v2H2V0zm8 0h2v2h-2V0z"/></symbol><symbol id="icon_facebook" viewBox="0 0 7 12"><path d="M5.925.502L4.448.5C2.789.5 1.717 1.6 1.717 3.301v1.293H.232A.232.232 0 0 0 0 4.827v1.87c0 .129.104.233.232.233h1.484v4.723c0 .13.104.232.232.232h1.938a.23.23 0 0 0 .231-.232V6.931h1.736a.232.232 0 0 0 .232-.233l.001-1.87a.233.233 0 0 0-.068-.165.218.218 0 0 0-.163-.069H4.118V3.499c0-.526.126-.794.812-.794h.995a.232.232 0 0 0 .231-.233V.733a.23.23 0 0 0-.231-.231z"/></symbol><symbol id="icon_play" viewBox="0 0 12 14"><path d="M10.5 6.134a1 1 0 0 1 0 1.732L3 12.196a1 1 0 0 1-1.5-.866V2.67A1 1 0 0 1 3 1.804l7.5 4.33z" stroke-width="2"/></symbol><symbol id="icon_refresh" viewBox="0 0 612.035 612.035"><path d="M323.128 56.236l5.646-9.57 40.17-40.169C271.247-13.921 165.482 13.786 89.65 89.646-16.421 195.717-28.355 360.261 53.875 479.49L10.98 522.386l137.7 19.667-19.667-137.7-34.968 34.967c-60.978-96.724-49.322-226.078 34.94-310.34 53.244-53.243 124.486-77.501 194.143-72.744zm258.264 13.743l-137.7-19.667 19.668 137.7 38.25-38.25c78.726 98.31 72.521 242.186-18.583 333.317-61.116 61.117-145.989 84.039-224.882 68.739l-45.65 45.649c105.654 33.799 226.05 8.791 309.895-75.054 112.858-112.858 119.146-291.979 18.805-412.209l40.197-40.225z"/></symbol><symbol id="icon_star" viewBox="0 0 39 37"><path fill-rule="evenodd" d="M19.5 2.501l5.603 10.056 11.395 2.166-7.933 8.382 1.44 11.394L19.5 29.623 8.995 34.499l1.439-11.394-7.932-8.382 11.395-2.166L19.5 2.501"/></symbol><symbol id="icon_twitter" viewBox="0 0 12 10"><path d="M8.032.001C6.699.022 5.648 1.173 5.648 2.507v.323C3.263 2.406 2.09 1.759.798.405.03 1.9.88 3.153 1.81 3.841c-.627 0-1.152-.081-1.557-.445-.04-.02-.081 0-.061.041.344 1.252 1.516 2.162 2.425 2.424-.828 0-1.374.121-1.96-.242-.04-.021-.081 0-.061.041.445 1.232 1.335 1.615 2.628 1.615-.647.486-1.516.97-3.153 1.012-.061 0-.102.08-.04.12.605.505 2.1.89 4.202.89 3.456 0 6.265-3.072 6.265-6.871v-.201c.546-.202.849-.688 1.01-1.173 0-.02-.02-.04-.04-.04l-1.151.404c-.021 0-.041-.04-.021-.062.485-.384.849-.868 1.01-1.333 0 0-.02-.021-.04-.021-.545.223-1.07.445-1.475.566a.24.24 0 0 1-.202-.02C9.326.405 8.538.001 8.032.001z"/></symbol><symbol id="icon_vk" viewBox="0 0 15 9"><path d="M12.573 5.757c.484.474.996.918 1.43 1.439.192.23.374.471.514.738.197.382.019.802-.324.825l-2.128-.002c-.55.047-.987-.175-1.354-.55-.295-.3-.568-.62-.852-.93a2.095 2.095 0 0 0-.383-.339c-.29-.189-.543-.131-.71.172-.168.308-.206.649-.223.993-.022.501-.175.632-.678.655-1.076.052-2.096-.112-3.045-.654-.837-.478-1.485-1.154-2.05-1.918C1.673 4.697.83 3.061.075 1.379-.096 1 .028.796.446.789A55.685 55.685 0 0 1 2.53.788c.282.004.469.166.578.433.375.924.835 1.803 1.412 2.616.153.217.31.434.533.587.247.169.435.113.55-.162.075-.174.107-.363.124-.549.055-.643.062-1.284-.035-1.923-.058-.4-.284-.659-.682-.734-.203-.038-.173-.116-.074-.231.17-.2.33-.325.652-.325h2.405c.379.075.463.245.515.627l.002 2.671c-.004.147.073.585.339.682.213.07.353-.1.48-.235.576-.611.987-1.332 1.354-2.081.163-.328.303-.671.438-1.012.1-.253.259-.378.544-.373l2.314.003c.069 0 .139.001.205.013.39.065.497.234.376.614-.19.599-.56 1.096-.92 1.596-.386.535-.8 1.051-1.182 1.588-.35.49-.322.738.115 1.164z"/></symbol><symbol id="icon_youtube" viewBox="0 0 16 13"><path d="M15.646 2.453l.02.131a2.028 2.028 0 0 0-1.379-1.408l-.014-.003C13.027.834 8.008.834 8.008.834S3 .827 1.74 1.173A2.03 2.03 0 0 0 .352 2.57l-.004.014c-.466 2.434-.47 5.359.02 7.965l-.02-.132a2.028 2.028 0 0 0 1.379 1.408l.014.003c1.246.34 6.267.34 6.267.34s5.006 0 6.266-.34a2.029 2.029 0 0 0 1.39-1.397l.003-.014C15.879 9.285 16 7.982 16 6.65v-.3c0-1.332-.121-2.634-.354-3.898zm-9.24 6.482V4.073l4.177 2.434-4.177 2.428z"/></symbol></svg>