<svg width="90" height="90" viewBox="0 0 90 90" fill="none" xmlns="http://www.w3.org/2000/svg"><path fill="#018AA6" d="M0 0h90v90H0z"/><path fill-rule="evenodd" clip-rule="evenodd" d="M56.768 31.782l-.08-.055.448-.643 4.989 1.605.398-.063.143-.34-.072-.42-4.623-2.26.61-1.262 1.142.089 4.641.305.013-.481-.474-.292-4.77-.725.267-1.288 5.95-.695v-.56l-.989-.384-4.664.626.094-1.163 5.778-1.626-.06-.465-.8-.616-4.904 1.915-.119-.867 5.429-2.523-.574-1.116-5.087 2.864-.187-.605 4.914-2.955-.463-1.209-4.926 3.375-.13-.324 4.142-3.169-.39-1.287-.28.207-3.985 3.35-.147-.192L61.17 15.6l-.268-1.3-3.473 3.646-.264-.188 2.282-2.502-.325-1.235-2.704 3.344-.407-.061 1.537-2.007L57.225 14l-2 3.214h-.41l.915-1.604-.313-1.22-1.448 2.861-.555.097.45-1.414L53.52 15l-.88 2.526-.717.21.085-1.206-.352-.633-.477 2.175-.93.386-.076-1.062-.29-.317-.2 1.743-1.018.672-.178-.823-.265-.412-.082 1.43-1.017.86-.09-.475-.498-.41.005 1.332-.697.574-.939-.694.108 1.634-.362.368-1.286-.504.18 1.715L41.883 24l.2.775c-9.996-2.634-19.01-.655-23.014 6.05-5.93 9.936 1.33 26.574 16.162 37.036 14.833 10.464 31.77 10.894 37.7.96 5.933-9.938-1.328-26.578-16.162-37.04zm-11.214-7.356c4.214-4.621 9.24-6.678 11.185-4.578 1.68 1.81.531 6.132-2.52 10.251-3.184-1.976-6.429-3.497-9.611-4.567.302-.372.614-.743.946-1.106zm-1.446 1.738c3.183 1.022 6.434 2.554 9.6 4.598-.345.433-.702.864-1.088 1.285-4.213 4.622-9.238 6.677-11.185 4.58-1.708-1.84-.495-6.282 2.673-10.463zm25.39 39.365c-5.478 9.179-20.814 8.999-34.136-.397-13.325-9.402-19.72-24.55-14.24-33.73 3.68-6.166 11.812-8.1 20.79-5.862l-1.25.178.264 1.339-1.565.476.319 1.237-1.397.69.318 1.208-1.282.814.418 1.099-1.222.97.545 1.052-1.124 1.014.676 1.037-.968 1.029.858 1.081-.708.934.92 1.144-.47.827 1.274.968-.34.622 1.687.986-.097.235 2.287 1.139.244-.361 2.086.86.397-.9 2.614.621.52-2.218.072.448 2.76.623.225-4.328.72 1.966c.935.392 1.831.49 2.685.303l-.905-5.788 1.03 1.309 1.03 1.314 1.875.511.33-.145.227-.309-2.56-5.142.512-.374 3.823 2.358 1.057.118.3-.359-.074-.293-.883-.96C69.767 44.26 74.412 57.296 69.499 65.53zM38.747 52.741h-1.039v.985h-1.054v-5.554h1.141v1.083h1.04l.002-2.257H35.71l-.003 7.953h3.038v-2.21zm3.233 2.2l.996.004v-7.954h-.996v2.828l-1.155 1.292v-4.12h-.995v7.951h.995v-2.546l1.155-1.294v3.84zm5.107.003V46.99h-2.062v1.14h-1.038v6.81h1.04v-6.797h1.02v6.8h1.04v.001zm1.102-.005h3.101v-7.948l-3.1.002-.001 7.946zm1.046-6.909h1.019v5.819h-1.019V48.03zm10.474-1.036H58.67v3.39h1.038v-3.39zm-.044 7.706v-3.105h-2.059v-4.611h-1.04v7.933h3.101l-.002-.217zm-1.04-.863h-1.019v-1.158h1.02v1.158zm-3.122-2.212h-2.06v-1.29h2.06l-.002-3.341h-3.097v7.951H55.5l.002-3.32zm-2.06-3.55h1.019v1.176h-1.019v-1.176zm1.019 5.788h-1.019v-1.155h1.019v1.155zm6.314 1.084h3.042v-2.211h-1.04v.988H61.72v-2.228h1.14v-1.037h-1.14v-2.29h1.142v1.083h1.04l-.001-2.26h-3.126v7.955zM42.92 57.19v1.129h-1.038v6.776h1.039V61.7h1.017v3.394h1.043l-.002-7.905h-2.06zm1.02 3.43h-1.018v-2.254h1.017v2.254zm-5.182-2.273H37.72v6.744h1.039v-6.696h1.02v6.696h1.038l.002-7.873h-2.061v1.13zm-1.007-.002v-1.268H36.67v1.127h-1.01v6.888h1.043l-.002-6.746h1.051zm12.457-1.143v6.757h-1.02v-6.757H48.15v6.757h-1.021v-6.757H46.09v7.887h5.163l-.006-7.887h-1.04zm12.67 3.439h1.038v-3.39h-1.038v3.39zm-1.067 1.176v-4.615h-1.038l.002 7.934h3.097l-.001-3.32h-2.06v.001zm1.022 2.239h-1.021v-1.158h1.021v1.158zm-8.32-4.102l-1.154 1.294V57.2h-.996v7.893h.996v-2.56l1.154-1.296v3.856h.993V57.2h-.993v2.752zm4.2.705h-1.108v-3.456h-1.04v7.892h1.04v-3.351h1.108v3.35h1.039v-7.891h-1.039v3.456z" fill="#fff"/></svg>