<svg width="90" height="90" viewBox="0 0 90 90" fill="none" xmlns="http://www.w3.org/2000/svg">
<rect width="90" height="90" fill="#018AA6"/>
<path fill-rule="evenodd" clip-rule="evenodd" d="M56.7679 31.7821C56.741 31.7632 56.7141 31.7463 56.6872 31.7274L57.1356 31.0836L62.1248 32.6892L62.5234 32.6256L62.6659 32.2858L62.5942 31.8655L57.9708 29.6061L58.5807 28.3443L59.7229 28.4327L64.3642 28.7378L64.3771 28.2569L63.9027 27.9648L59.1339 27.2404L59.4 25.9518L65.3498 25.2573V24.6979L64.3612 24.3134L59.697 24.9393L59.7907 23.7758L65.5691 22.1503L65.5083 21.6853L64.709 21.0693L59.8046 22.9839L59.686 22.1175L65.1146 19.5939L64.5406 18.4781L59.4538 21.3416L59.2674 20.7365L64.1808 17.7816L63.7184 16.5734L58.792 19.9476L58.6615 19.6237L62.8045 16.4551L62.4138 15.1675L62.1337 15.3751L58.1492 18.7245L58.0017 18.5327L61.171 15.5997L60.9029 14.2991L57.4296 17.9465L57.1665 17.7577L59.4478 15.2559L59.1229 14.0209L56.4191 17.3653L56.0124 17.3037L57.5492 15.2966L57.2253 14L55.2241 17.2142H54.8145L55.7304 15.6096L55.4165 14.3895L53.9694 17.251L53.4142 17.3484L53.8637 15.9335L53.5209 15.0005L52.6409 17.5272L51.9243 17.7378L52.009 16.5306L51.6572 15.8977L51.1798 18.0727L50.2499 18.4592L50.1742 17.397L49.8832 17.0801L49.6849 18.8228L48.6663 19.4955L48.4879 18.6718L48.2228 18.2605L48.1411 19.6892L47.1235 20.5507L47.0338 20.0747L46.5355 19.6644L46.5415 20.9968L45.8439 21.5711L44.905 20.8766L45.0127 22.511L44.6509 22.8786L43.3652 22.3749L43.5456 24.0898L41.8823 24.0014L42.0826 24.7764C32.0864 22.1424 23.0719 24.1206 19.0685 30.8263C13.1385 40.7621 20.398 57.3995 35.2298 67.8619C50.0626 78.3263 67.0003 78.7555 72.9302 68.8217C78.8631 58.8839 71.6017 42.2445 56.7679 31.7821ZM45.5538 24.4256C49.7676 19.8045 54.7936 17.7478 56.739 19.8482C58.4193 21.6585 57.2702 25.9796 54.2195 30.099C51.0353 28.1227 47.7903 26.6016 44.608 25.5325C44.91 25.1599 45.222 24.7893 45.5538 24.4256ZM44.1077 26.1644C47.291 27.1858 50.542 28.7179 53.7082 30.7617C53.3634 31.1949 53.0056 31.6261 52.6199 32.0474C48.4072 36.6685 43.3822 38.7242 41.4348 36.6268C39.7275 34.7867 40.9404 30.3454 44.1077 26.1644ZM69.4988 65.529C64.0203 74.7077 48.6842 74.5278 35.3623 65.1316C22.0374 55.7303 15.6411 40.5812 21.1225 31.4015C24.8021 25.2364 32.9335 23.3019 41.9122 25.5404L40.6624 25.7183L40.9265 27.0566L39.3608 27.5325L39.6797 28.7705L38.2834 29.4601L38.6014 30.6683L37.3187 31.482L37.7373 32.5809L36.5154 33.5507L37.0596 34.6029L35.9364 35.6173L36.6121 36.6536L35.6444 37.683L36.5025 38.764L35.7939 39.6979L36.7137 40.8415L36.2443 41.6692L37.518 42.6369L37.1772 43.2589L38.8645 44.2455L38.7678 44.48L41.0551 45.6187L41.2992 45.258L43.3852 46.1184L43.7818 45.2183L46.396 45.8392L46.9162 43.6206L46.988 44.0687L49.7486 44.6917L49.9729 40.3636L50.6934 42.3299C51.6283 42.7224 52.5242 42.8198 53.3784 42.633L52.4734 36.8454L53.5039 38.1539L54.5325 39.4684L56.4081 39.9791L56.738 39.834L56.9652 39.525L54.4059 34.3833L54.9171 34.0087L58.7402 36.3675L59.7966 36.4847L60.0966 36.126L60.0229 35.8329L59.1399 34.8731C69.7669 44.2585 74.4122 57.2962 69.4988 65.529ZM38.7459 52.7406H37.7074V53.7263H36.653V48.1722H37.7941V49.2552H38.8336L38.8356 46.9978H35.7111L35.7082 54.9514H38.7459V52.7406ZM41.9789 54.9414L42.9746 54.9454V46.9908H41.9789V49.8185L40.8238 51.1112V46.9918H39.8292V54.9424H40.8238V52.3959L41.9789 51.1022V54.9414ZM47.0856 54.9444V46.9898H45.0236V48.1294H43.9861V54.9394H45.0256V48.1433H46.0452V54.9434H47.0856V54.9444ZM48.1879 54.9394H51.2894V46.9908L48.1899 46.9928L48.1879 54.9394ZM49.2344 48.0301H50.2529V53.8485H49.2344V48.0301ZM59.7079 46.9938H58.6695V50.3839H59.7079V46.9938ZM59.6641 54.7V51.595H57.6051V46.9838H56.5656V54.9166H59.6661L59.6641 54.7ZM58.6246 53.8366H57.6051V52.679H58.6246V53.8366ZM55.5022 51.6249H53.4421V50.3342H55.5022L55.5002 46.9938H52.4027V54.9454H55.5002L55.5022 51.6249ZM53.4421 48.0748H54.4607V49.2512H53.4421V48.0748ZM54.4607 53.8634H53.4421V52.7079H54.4607V53.8634ZM60.7753 54.9474H63.817V52.7357H62.7766V53.7243H61.7201V51.4957H62.8593V50.4594H61.7201V48.1692H62.8623V49.2522H63.9027L63.9007 46.9918H60.7753V54.9474ZM42.9197 57.1889V58.3176H41.8823V65.0938H42.9207V61.6997H43.9383V65.0938H44.9808L44.9788 57.1889H42.9197ZM43.9393 60.6187H42.9217V58.3653H43.9393V60.6187ZM38.7578 58.3464H37.7203V65.0898H38.7588V58.3941H39.7784V65.0898H40.8169L40.8189 57.2167H38.7578V58.3464ZM37.7512 58.3444V57.0756H36.6689V58.2033H35.6583V65.0908H36.7018L36.6998 58.3454H37.7512V58.3444ZM50.2081 57.2008V63.9581H49.1885V57.2008H48.15V63.9581H47.1285V57.2008H46.091V65.0878H51.2535L51.2476 57.2008H50.2081ZM62.8782 60.6396H63.9157V57.2505H62.8782V60.6396ZM61.8108 61.816V57.2008H60.7733L60.7753 65.1355H63.8718L63.8708 61.815H61.8108V61.816ZM62.8334 64.0545H61.8118V62.897H62.8334V64.0545ZM54.5125 59.953L53.3594 61.2467V57.2008H52.3628V65.0938H53.3594V62.5334L54.5125 61.2377V65.0938H55.5062V57.2008H54.5125V59.953ZM58.7133 60.6585H57.6051V57.2018H56.5656V65.0938H57.6051V61.7425H58.7133V65.0938H59.7518V57.2018H58.7133V60.6585Z" fill="white"/>
</svg>
